<?xml version="1.0" encoding="iso-8859-1"?>
<!-- Uploaded to: SVG Repo, www.svgrepo.com, Generator: SVG Repo Mixer Tools -->
<!DOCTYPE svg PUBLIC "-//W3C//DTD SVG 1.1//EN" "http://www.w3.org/Graphics/SVG/1.1/DTD/svg11.dtd">
<svg fill="#000000" height="800px" width="800px" version="1.1" id="Capa_1" xmlns="http://www.w3.org/2000/svg" xmlns:xlink="http://www.w3.org/1999/xlink" 
	 viewBox="0 0 297 297" xml:space="preserve">
<g>
	<path d="M45.538,297c-6.318,0.001-12.633-2.404-17.443-7.213L7.213,268.905c-9.617-9.619-9.617-25.268,0-34.885
		c4.659-4.659,10.853-7.226,17.443-7.226c3.192,0,6.292,0.602,9.168,1.753c8.274-7.952,20.641-20.054,25.042-25.25
		c5.951-7.025,13.455-18.541,21.401-30.732c10.669-16.371,21.702-33.3,31.361-42.961l120.34-120.34
		c12.351-12.352,32.45-12.35,44.801,0l10.968,10.968c12.351,12.351,12.351,32.449,0,44.8L167.396,185.373
		c-9.66,9.66-26.589,20.692-42.962,31.362c-12.191,7.945-23.706,15.449-30.73,21.398c-5.199,4.404-17.3,16.771-25.251,25.043
		c1.151,2.877,1.753,5.977,1.753,9.169c0,6.589-2.566,12.784-7.226,17.443C58.172,294.596,51.854,297,45.538,297z M24.655,246.596
		c-0.752,0-2.201,0.185-3.44,1.425c-1.897,1.897-1.897,4.984,0,6.882l20.883,20.882c1.897,1.897,4.983,1.897,6.88,0
		c1.241-1.241,1.426-2.688,1.426-3.44s-0.186-2.2-1.425-3.44c-3.792-3.791-3.876-9.912-0.19-13.807
		c0.949-1.004,23.35-24.648,32.116-32.074c7.971-6.753,19.991-14.586,32.717-22.879c15.521-10.116,31.572-20.574,39.771-28.775
		L273.735,51.029c4.63-4.63,4.63-12.164,0-16.795l-10.968-10.968c-4.628-4.63-12.165-4.631-16.796,0l-120.34,120.34
		c-8.2,8.199-18.659,24.249-28.774,39.77c-8.294,12.726-16.128,24.747-22.881,32.719c-7.425,8.766-31.07,31.166-32.073,32.115
		c-3.895,3.687-10.015,3.601-13.807-0.189C26.856,246.78,25.408,246.596,24.655,246.596z"/>
</g>
</svg>