<?xml version="1.0" encoding="iso-8859-1"?>
<!-- Uploaded to: SVG Repo, www.svgrepo.com, Generator: SVG Repo Mixer Tools -->
<!DOCTYPE svg PUBLIC "-//W3C//DTD SVG 1.1//EN" "http://www.w3.org/Graphics/SVG/1.1/DTD/svg11.dtd">
<svg fill="#000000" version="1.1" id="Capa_1" xmlns="http://www.w3.org/2000/svg" xmlns:xlink="http://www.w3.org/1999/xlink" 
	 width="800px" height="800px" viewBox="0 0 277.842 277.842"
	 xml:space="preserve">
<g>
	<g>
		<path d="M138.918,95.423c-12.655,0-22.947,10.301-22.947,22.95c0,8.449,4.741,16.183,12.364,20.2
			c2.897,1.525,4.711,4.527,4.711,7.8v36.047H144.8v-36.053c0-3.267,1.813-6.281,4.72-7.807
			c7.614-4.005,12.352-11.745,12.352-20.193C161.859,105.724,151.561,95.423,138.918,95.423z"/>
		<path d="M138.918,0.006C62.315,0.006,0,62.324,0,138.922c0,76.597,62.315,138.914,138.918,138.914
			c76.594,0,138.924-62.317,138.924-138.914C277.842,62.324,215.512,0.006,138.918,0.006z M162.424,151.279v39.956
			c0,4.87-3.945,8.815-8.821,8.815h-29.381c-4.864,0-8.818-3.945-8.818-8.815v-39.956c-10.649-7.561-17.075-19.731-17.075-32.906
			c0-22.383,18.201-40.577,40.589-40.577c22.371,0,40.577,18.194,40.577,40.577C179.483,131.542,173.059,143.719,162.424,151.279z"
			/>
	</g>
</g>
</svg>