<?xml version="1.0" encoding="iso-8859-1"?>
<!-- Uploaded to: SVG Repo, www.svgrepo.com, Generator: SVG Repo Mixer Tools -->
<!DOCTYPE svg PUBLIC "-//W3C//DTD SVG 1.1//EN" "http://www.w3.org/Graphics/SVG/1.1/DTD/svg11.dtd">
<svg fill="#000000" version="1.1" id="Capa_1" xmlns="http://www.w3.org/2000/svg" xmlns:xlink="http://www.w3.org/1999/xlink" 
	 width="800px" height="800px" viewBox="0 0 366.129 366.129"
	 xml:space="preserve">
<g>
	<path d="M210.923,1.152C81.477-8.172,27.966,62.784,11.168,110.683c-26.764,103.921-6.229,186.688,70.308,255.128
		c-8.706-20.529-3.871-47.573-4.974-56.004c-1.098-8.408,11.204-13.066,11.204-13.066s-13.067-22.396-9.961-22.396
		c3.112,0,10.271,8.384,17.732,7.916c-12.588-5.207-37.641-62.682-37.641-62.682l24.276,13.686L71.516,201
		c0,0,94.438,64.002,131.934,65.251c-13.686-12.448-4.355-23.646-4.355-23.646l11.829,13.066l-8.093-28.633l29.87,37.963
		c0,0,4.345,0.479,3.106-13.066c-1.227-13.546,41.068,27.383,41.068,27.383s-11.969-26.461-13.066-78.331
		c-0.292,23.401,60.23,60.908,59.133,83.923c-1.086,23.016-13.697,62.858-13.697,62.858s74.675-150.6,52.908-229.613
		C351.503,89.577,340.364,10.505,210.923,1.152z"/>
</g>
</svg>