<?xml version="1.0" encoding="iso-8859-1"?>
<!-- Uploaded to: SVG Repo, www.svgrepo.com, Generator: SVG Repo Mixer Tools -->
<!DOCTYPE svg PUBLIC "-//W3C//DTD SVG 1.1//EN" "http://www.w3.org/Graphics/SVG/1.1/DTD/svg11.dtd">
<svg fill="#000000" version="1.1" id="Capa_1" xmlns="http://www.w3.org/2000/svg" xmlns:xlink="http://www.w3.org/1999/xlink" 
	 width="800px" height="800px" viewBox="0 0 31.689 31.688"
	 xml:space="preserve">
<g>
	<path d="M5.826,30.785c-1.53-1.938-1.824-2.503-1.824-2.503s0.196-2.233-0.393-3.142s-1.177-1.537-2.429-2.731
		S0.852,11.939,2.684,9.125C4.518,6.312,11.453-2.85,20.875,0.88c9.423,3.73,10.208,14.462,10.208,14.462s-0.287,0.106-1.833-0.9
		c1.768,1.963,1.236,5.121,1.833,6.658c-0.899-0.425-1.09,0.547-1.09,0.547s-0.398,4.549,0.827,5.162
		c-1.497-0.098-2.992-0.531-3.925-1.259c-0.124,2.167,0.146,3.173,1.791,4.376c-1.398,0.368-3.214-0.98-3.214-0.98
		s0.023,1.791,1.472,2.724c-0.688,0.196-3.656-1.08-2.993-4.744c0.073-2.2-0.571-4.841-0.571-4.841s-0.141,2.199-0.901,3.082
		c-0.271-2.012-4.024-4.654-4.024-4.654s0.941,2.928,0.654,3.534c-0.287-1.039-1.702-2.813-1.702-2.813s1.547,2.822,1.309,3.795
		c-0.999-1.872-3.794-4.122-3.794-4.122s1.375,3.092,0.785,3.665c-0.148-1.072-4.777-6.086-4.777-6.086s1.284,2.021,0.981,2.879
		c-0.303-1.006-5.104-3.861-5.104-3.861s1.073,2.863,0.851,3.73c-0.933-1.342-1.898-1.146-2.487-0.918
		C4.206,21.542,5.049,29.042,5.826,30.785z"/>
</g>
</svg>