<?xml version="1.0" encoding="iso-8859-1"?>
<!-- Uploaded to: SVG Repo, www.svgrepo.com, Generator: SVG Repo Mixer Tools -->
<!DOCTYPE svg PUBLIC "-//W3C//DTD SVG 1.1//EN" "http://www.w3.org/Graphics/SVG/1.1/DTD/svg11.dtd">
<svg fill="#000000" version="1.1" id="Capa_1" xmlns="http://www.w3.org/2000/svg" xmlns:xlink="http://www.w3.org/1999/xlink" 
	 width="800px" height="800px" viewBox="0 0 31.004 31.004"
	 xml:space="preserve">
<g>
	<path d="M8.771,28.2c0.334,0.969-0.242,2.083-0.242,2.083l-0.178-1.212c0,0-0.119,2.014-1.049,1.904
		c0.576-0.688,0.355-1.308,0.355-1.308s-1.319,1.565-1.905,1.308c0.813-0.495,1.856-1.84,1.712-3.051
		c-0.145-1.212-5.249-3.472-5.506-5.022c-0.258-1.55,0.274-2.472,0.242-2.81c-0.032-0.337-1.469-4.316-0.646-6.717
		c0.685-1.109-1.081-4.209,4.586-9.284c2.945-2.288,7.746-5.217,13.192-3.649c3.812-0.275,6.104,5.684,6.104,5.684
		s3.595,2.934,4.053,4.569c0.458,1.636-0.812,2.788-0.532,3.084c1.657,5.527,0.117,7.962-0.403,8.413
		c-0.522,0.452-0.479,1.723-1.082,1.905c-0.021,0.635-0.237,2.454-0.938,2.632c0.464-1.287,0.656-2.019,0.194-1.728
		c-0.463,0.29-1.302,2.96-1.302,2.96s-0.334-1.398-0.652-1.119C24.263,27.488,24.37,29.34,25,29.91
		c-1.577-0.032-1.663-2.535-1.663-2.535s-1.271,2.676-2.422,1.825c1.519-0.895,3.035-4.765,3.035-4.765s-0.227-0.059-0.872,0.228
		c0.776-0.813,1.582-3.43,1.405-3.649c-0.436-0.006-0.807,0.728-0.807,0.728s1.317-2.639,0.953-3.312
		c-0.517,0.728-0.856,0.791-0.856,0.791s0.733-1.683,0.372-2.146c-0.57-0.5-3.628-4.409-3.746-4.813
		c-0.097,2.374,1.497,3.875,2.229,4.634c-1.98,0.124-3.101-2.647-3.957-4.859c-0.866-1.599-4.333-4.031-4.408-4.86
		c-0.572,0.695,0.775,2.887,2.379,6.599c0.358,0.827,1.129,1.938,1.286,2.477c-0.813-0.604-1.114-0.71-1.114-0.71
		s0.161,0.904,0.113,1.324c-1.34-2.681-4.521-5.28-4.521-5.28s2.19,4.396,0.629,4.65c0.581-1.034-0.505-3.235-3.541-5.689
		C8.502,9.813,8.91,6.789,8.609,7.225c-3.552,1.922,0.862,6.873-0.743,9.561C7.49,15.39,6.962,15.46,6.962,15.46
		s0.916,3.59-0.597,5.021c-0.342,0.78,0.028,2.726,0.673,4.338C7.683,26.434,8.604,27.716,8.771,28.2z"/>
</g>
</svg>