<?xml version="1.0" encoding="iso-8859-1"?>
<!-- Uploaded to: SVG Repo, www.svgrepo.com, Generator: SVG Repo Mixer Tools -->
<!DOCTYPE svg PUBLIC "-//W3C//DTD SVG 1.1//EN" "http://www.w3.org/Graphics/SVG/1.1/DTD/svg11.dtd">
<svg fill="#000000" version="1.1" id="Capa_1" xmlns="http://www.w3.org/2000/svg" xmlns:xlink="http://www.w3.org/1999/xlink" 
	 width="800px" height="800px" viewBox="0 0 578.557 578.557"
	 xml:space="preserve">
<g>
	<path d="M134.462,247.188c-18.036,20.045,17.367,134.951,17.367,134.951s-28.394-72.128-38.751-67.448
		c-32.403,74.145,4.339,229.489,9.349,233.168s-15.688,30.733-29.385,17.375c16.036-16.393,0-33.411,0-33.411
		s-3.679,3.679-12.036,6.679c5.688-12.697,8.009-45.43,8.009-45.43V459.66c0,0-7.349,30.732-22.706,34.751
		c8.679-13.357,16.018-58.788,16.018-58.788s-8.009,13.019-16.018,13.34c4.661-8.357,0-34.751,0-34.751
		s-26.394,35.073-41.439,28.073c14.375-6.662,20.045-36.092,20.045-36.092s-25.055,15.376-30.742,0
		c18.375-0.66,28.072-20.035,28.072-20.035s-28.403,14.035-28.072,5.339c14.697-8.357,26.715-33.394,26.715-33.394
		s-15.688,17.697-23.715,13.34c10.349-8.697,26.385-28.072,26.385-28.072s-26.385,15.393-29.385,1.339
		c20.367-6.34,26.715-42.751,26.715-42.751s-20.045,22.715-26.715,14.696c13.366-8.001,30.742-29.376,25.375-30.733
		c-5.339-1.339-21.045,13.019-33.403,5.34c23.055-12.019,37.412-78.851,37.412-78.851S1.806,236.804,6.146,225.777
		c12.688-4.027,37.412-21.402,37.412-50.788C50.272,71.459,290.128-40.768,413.739,14.672
		c26.108,18.233,57.449,40.091,57.449,40.091s13.018,14.357,24.054,18.688c-0.356,5.009-17.376,5.357-17.376,5.357
		s15.358,13.018,29.395,13.349c0,9.357-30.733,5.339-30.733,5.339s61.002,69.011,62.788,92.2
		c1.803,23.188,20.732,77.842,33.412,85.529c-9.68,8.019-16.715,11.358-36.073,1.339c-4.339,8,22.054,34.055,25.055,48.77
		c3,14.697,0.339,40.43,11.019,58.127c-12.357,11.055-29.395-16.036-29.395-16.036s5.679,103.896,16.037,120.272
		c-6.357,5.339-17.377-16.037-17.377-16.037s-24.054,18.019-8.018,36.072c-24.375,9.02-26.715-54.787-26.715-54.787
		s-45.43,41.091-5.34,112.271c-10.34,5.982-39.072-46.787-39.072-46.787s-5.68,27.733,21.732,60.127
		c-88.199-39.09-38.751-131.611-42.77-153.666c-4-22.036-38.751-35.394-38.751-35.394s-8.696,39.091,23.376,77.842
		c-21.715,5.339-92.539-112.254-92.539-112.254s4.322,51.431,22.376,67.146c-11.019,9.696-49.118-50.448-49.118-50.448
		s22.724,69.806,42.76,91.182c-20.376,11.375-99.227-118.915-99.227-118.915s24.376,71.163,46.77,100.218
		c-8.009,4.982-91.539-112.915-91.539-112.915s-5.009,11.02,11.375,42.092C194.911,367.764,141.132,237.822,134.462,247.188z"/>
</g>
</svg>